<?xml version="1.0" encoding="utf-8"?>
<!-- Generator: Adobe Illustrator 16.0.0, SVG Export Plug-In . SVG Version: 6.00 Build 0)  -->
<!DOCTYPE svg PUBLIC "-//W3C//DTD SVG 1.1//EN" "http://www.w3.org/Graphics/SVG/1.1/DTD/svg11.dtd">
<svg version="1.1" id="Layer_1" xmlns="http://www.w3.org/2000/svg" xmlns:xlink="http://www.w3.org/1999/xlink" x="0px" y="0px"
	 width="320px" height="320px" viewBox="0 0 320 320" enable-background="new 0 0 320 320" xml:space="preserve">
<g>
	<g>
		<g>
			<path fill="#F5D32C" d="M257.014,52.955c0,0,25.834,18.964,19.213,65.271c-6.619,46.307-36.266,84.109-83.787,102.528
				c-47.523,18.419-106.956,23.709-148.485-3.581C2.428,189.88-1.725,161.338,2.639,153.753c3.453-6.003,5.753-8.361,21.654-8.589
				c15.903-0.229,75.318,23.462,109.102,18.342c69.727-10.571,86.848-81.481,99.393-94.629
				C245.33,55.729,250.322,51.57,257.014,52.955z"/>
			<path fill="#EAC61C" d="M276.227,118.226c6.377-44.601-17.344-63.829-19.1-65.186c2.674,21.023,3.93,56.756-23.553,100.651
				c-34.078,54.434-160.3,88.169-229.278,4.033l-2.963,4.237c0.79,12.342,10.566,34.146,42.621,55.213
				c41.529,27.29,100.963,22,148.485,3.581S269.607,164.532,276.227,118.226z"/>
			<path fill="#FEE24F" d="M133.629,143.1c-32.15,11.568-93.433,1.836-109.336,2.065c-9.902,0.142-14.528,1.111-17.445,3.271
				l1.845,3.283c169.661,86.046,242.868-81.35,248.088-98.801C238.623,43.636,211.533,115.069,133.629,143.1z"/>
			
				<ellipse transform="matrix(0.8707 0.4918 -0.4918 0.8707 77.1383 16.7397)" fill="#8F742C" cx="6.736" cy="155.062" rx="6.016" ry="8.606"/>
			<path opacity="0.6" fill="#FFF1BB" d="M43.73,153.596c0,0,117.657,17.107,173.244-57.426
				C216.975,96.17,163.832,181.875,43.73,153.596z"/>
			
				<ellipse transform="matrix(0.8755 0.4832 -0.4832 0.8755 99.6779 -84.9566)" fill="#8F742C" cx="214.731" cy="150.987" rx="4.862" ry="6.279"/>
			
				<ellipse transform="matrix(0.8755 0.4832 -0.4832 0.8755 99.7016 -77.7276)" fill="#8F742C" cx="200.693" cy="154.623" rx="2.229" ry="2.878"/>
			
				<ellipse transform="matrix(0.8755 0.4832 -0.4832 0.8755 107.2881 -26.3095)" fill="#8F742C" cx="104.701" cy="195.05" rx="2.228" ry="2.877"/>
			
				<ellipse transform="matrix(0.8753 0.4835 -0.4835 0.8753 106.2425 -21.9505)" fill="#8F742C" cx="95.688" cy="195.049" rx="1.671" ry="2.158"/>
			
				<ellipse transform="matrix(0.8754 0.4835 -0.4835 0.8754 102.2238 -23.7269)" fill="#8F742C" cx="97.13" cy="186.397" rx="1.671" ry="2.158"/>
			
				<ellipse transform="matrix(0.8755 0.4833 -0.4833 0.8755 110.8236 -69.3481)" fill="#8F742C" cx="189.963" cy="180.349" rx="2.646" ry="3.417"/>
		</g>
	</g>
	<g>
		<g>
			<path fill="#F5D32C" d="M255.578,53.035c0,0,30.619,9.457,39.535,55.376c8.914,45.919-6.711,91.348-45.578,124.318
				c-38.867,32.97-93.287,57.438-141.464,45.256c-48.177-12.181-61.45-37.788-59.812-46.384c1.295-6.802,2.697-9.783,17.646-15.209
				c14.949-5.425,78.849-2.504,109.091-18.41c62.416-32.828,55.361-105.434,62.908-121.966
				C245.449,59.484,248.803,53.919,255.578,53.035z"/>
			<path fill="#EAC61C" d="M295.113,108.411c-8.586-44.229-37.297-54.626-39.4-55.332c9.414,18.987,22.305,52.337,10.719,102.813
				c-14.365,62.593-122.571,135.817-215.305,78.918l-1.412,4.972c4.79,11.402,21.167,28.801,58.356,38.203
				c48.177,12.182,102.597-12.286,141.464-45.256C288.402,199.759,304.027,154.331,295.113,108.411z"/>
			<path fill="#FEE24F" d="M168.533,178.627c-26.588,21.46-87.679,32.341-102.628,37.766c-9.31,3.378-13.363,5.811-15.411,8.805
				l2.819,2.498c188.486,25.721,202.818-156.42,202.035-174.619C235.15,50.255,232.955,126.622,168.533,178.627z"/>
			
				<ellipse transform="matrix(0.9838 0.1794 -0.1794 0.9838 42.3727 -5.6728)" fill="#8F742C" cx="52.559" cy="231.496" rx="6.017" ry="8.606"/>
			<path opacity="0.7" fill="#FFF1BB" d="M85.626,217.837c0,0,107.185-10.125,143.085-103.961
				C228.711,113.876,208.172,209.457,85.626,217.837z"/>
			
				<ellipse transform="matrix(0.9855 0.1698 -0.1698 0.9855 30.6768 -39.7444)" fill="#8F742C" cx="247.743" cy="159.51" rx="4.861" ry="6.28"/>
			
				<ellipse transform="matrix(0.9854 0.1701 -0.1701 0.9854 31.9302 -37.6423)" fill="#8F742C" cx="235.67" cy="167.544" rx="2.228" ry="2.877"/>
			
				<ellipse transform="matrix(0.9855 0.1696 -0.1696 0.9855 43.1239 -17.3466)" fill="#8F742C" cx="123.088" cy="243.722" rx="2.228" ry="2.878"/>
			
				<ellipse transform="matrix(0.9855 0.1699 -0.1699 0.9855 40.7508 -22.0766)" fill="#8F742C" cx="149.407" cy="227.138" rx="2.228" ry="2.877"/>
			
				<ellipse transform="matrix(0.9855 0.1698 -0.1698 0.9855 41.4079 -17.0752)" fill="#8F742C" cx="120.564" cy="233.626" rx="1.671" ry="2.159"/>
			
				<ellipse transform="matrix(0.9855 0.1695 -0.1695 0.9855 40.9268 -18.749)" fill="#8F742C" cx="130.299" cy="230.383" rx="1.671" ry="2.156"/>
			<path fill="#8F742C" d="M236.568,195.814c-0.322,1.86-1.75,3.167-3.189,2.919c-1.439-0.249-2.348-1.957-2.025-3.817
				c0.318-1.86,1.746-3.167,3.186-2.92C235.98,192.244,236.889,193.954,236.568,195.814z"/>
		</g>
	</g>
	<g>
		<g>
			<path fill="#F5D32C" d="M254.965,52.88c0,0,32.016,1.391,52.271,43.555c20.258,42.164,16.648,90.069-12.598,131.811
				c-29.248,41.74-75.693,79.198-125.387,79.616c-49.691,0.42-69.017-20.991-69.61-29.721c-0.47-6.909,0.13-10.148,13.218-19.184
				c13.087-9.033,75.641-22.397,100.867-45.443c52.064-47.568,26.85-116.02,29.961-133.924
				C246.799,61.685,248.633,55.452,254.965,52.88z"/>
			<path fill="#EAC61C" d="M307.236,96.435c-19.51-40.611-49.918-43.396-52.131-43.545c13.916,15.982,42.297,42.891,39.979,94.627
				c-3.316,73.915-89.826,171.034-191.855,133.001l-0.107,5.168c7.521,9.818,27.774,22.5,66.131,22.176
				c49.693-0.418,96.139-37.876,125.387-79.616C323.885,186.504,327.494,138.598,307.236,96.435z"/>
			<path fill="#FEE24F" d="M202.572,196.425c-20.285,27.496-76.625,53.499-89.713,62.532c-8.15,5.628-11.456,9.006-12.677,12.424
				l3.359,1.701C292.395,250.216,260.117,70.386,254.75,52.979C234.498,55.366,251.719,129.798,202.572,196.425z"/>
			
				<ellipse transform="matrix(0.9971 -0.0756 0.0756 0.9971 -20.6289 8.6326)" fill="#8F742C" cx="103.774" cy="276.949" rx="6.016" ry="8.606"/>
			<path opacity="0.9" fill="#FFF1BB" d="M147.772,252.052c0,0,97.408-47.483,101.945-154.666
				C249.717,97.386,254.258,209.807,147.772,252.052z"/>
			
				<ellipse transform="matrix(0.9963 -0.0855 0.0855 0.9963 -12.4869 24.0227)" fill="#8F742C" cx="274.356" cy="157.867" rx="4.863" ry="6.279"/>
			
				<ellipse transform="matrix(0.9964 -0.0852 0.0852 0.9964 -13.4135 23.1728)" fill="#8F742C" cx="264.713" cy="168.697" rx="2.229" ry="2.877"/>
			<path fill="#8F742C" d="M176.883,261.159c0.135,1.582-0.748,2.95-1.975,3.058c-1.227,0.104-2.33-1.094-2.465-2.679
				c-0.137-1.584,0.746-2.952,1.973-3.056C175.643,258.375,176.746,259.574,176.883,261.159z"/>
			
				<ellipse transform="matrix(0.9964 -0.085 0.085 0.9964 -21.6646 16.4592)" fill="#8F742C" cx="182.504" cy="262.709" rx="1.672" ry="2.158"/>
			
				<ellipse transform="matrix(0.9964 -0.085 0.085 0.9964 -22.6096 15.1642)" fill="#8F742C" cx="166.716" cy="273.008" rx="1.671" ry="2.158"/>
			<path fill="#8F742C" d="M272.74,195.817c0.164,1.881-0.887,3.507-2.344,3.632c-1.455,0.126-2.766-1.3-2.926-3.18
				c-0.164-1.881,0.887-3.507,2.344-3.631C271.27,192.516,272.58,193.938,272.74,195.817z"/>
		</g>
	</g>
	<path fill="#8F742C" d="M241.096,18.877c0,0,10.842,14.994,8.557,34.168c0,0,2.564,2.989,5.684,0.233
		c3.826-16.32,3.26-31.979,1.873-41.146C257.209,12.132,247.975,12.576,241.096,18.877z"/>
</g>
</svg>
