<?xml version="1.0" encoding="utf-8"?>
<!-- Generator: Adobe Illustrator 16.0.0, SVG Export Plug-In . SVG Version: 6.00 Build 0)  -->
<!DOCTYPE svg PUBLIC "-//W3C//DTD SVG 1.1//EN" "http://www.w3.org/Graphics/SVG/1.1/DTD/svg11.dtd">
<svg version="1.1" id="Layer_1" xmlns="http://www.w3.org/2000/svg" xmlns:xlink="http://www.w3.org/1999/xlink" x="0px" y="0px"
	 width="320px" height="320px" viewBox="0 0 320 320" enable-background="new 0 0 320 320" xml:space="preserve">
<g>
	<g>
		<path fill="#543A15" d="M191.82,0.025c-13.769,1.395-24.968,18.077-31.213,29.17c-4.393,7.804-7.163,16.607-10.077,25.032
			c-3.271,9.458-4.137,18.974-6.193,28.594c-0.232,1.084,1.291,1.498,1.651,0.456c2.705-7.843,7.169-15.751,10.646-23.329
			c3.201-6.98,6.603-13.794,10.437-20.451c3.685-6.396,8.297-11.619,13.551-16.748c5.137-5.014,12.349-7.812,16.341-13.763
			C199.34,5.443,196.251-0.425,191.82,0.025z"/>
	</g>
	<g>
		<path fill="#F99D1C" d="M210.094,312.692c-25.428,8.592-50.094,7.227-50.094,7.227s-31.559,1.764-60.052-11.117
			c-24.491-11.07-46.726-32.926-44.773-75.982c3.176-67.771,38.118-81.542,46.584-109.066c7.83-25.412,9.323-66.151,47.807-72.266
			c1-0.16,2.018-0.302,3.065-0.413c2.319-0.255,4.781-0.381,7.37-0.381c48.712,0,49.761,45.535,58.241,73.06
			c8.465,27.524,43.407,41.295,46.584,109.066C267.049,281.673,238.111,303.243,210.094,312.692z"/>
	</g>
	<g>
		<path fill="#FFC907" d="M210.094,312.692c-5.416,1.826-10.816,3.209-15.931,4.24c0,0,0,0-0.016,0
			c-18.885,3.828-34.147,2.986-34.147,2.986s-28.478,1.588-55.748-9.291c-2.779-1.111-5.162-3.033-6.766-5.559
			c-0.016,0-0.016-0.018-0.032-0.033c-11.642-18.201-20.854-38.736-23.332-60.4c-2.351-20.568,0.444-42.724,11.324-60.704
			c10.673-17.629,28.621-30.383,37.546-49.076c9.832-20.616,7.575-44.503,16.692-65.437c2.732-6.258,6.02-12.293,9.879-17.931
			c1-0.16,2.018-0.302,3.065-0.413c2.319-0.255,4.781-0.381,7.37-0.381c0.873,0,1.731,0.016,2.572,0.047
			c46.188,1.572,47.347,45.98,55.669,73.013c8.465,27.524,43.407,41.295,46.584,109.066
			C267.049,281.673,238.111,303.243,210.094,312.692z"/>
	</g>
	<g>
		<path fill="#FFCF1D" d="M210.094,312.692c-5.416,1.826-10.816,3.209-15.931,4.24c0,0,0,0-0.016,0
			c-24.046-6.146-45.773-21.377-56.398-44.391c-9.021-19.553-11.103-40.723-8.308-61.942c3.018-22.982,12.342-43.52,21.585-64.468
			c4.034-9.132,2.271-14.819-1.97-23.205c-2.064-4.082-3.383-7.941-4.066-12.5c-1.397-9.228,1.478-18.964,4.083-27.731
			c3.319-11.166,7.005-22.521,13.5-31.956c46.188,1.572,47.347,45.98,55.669,73.013c8.465,27.524,43.407,41.295,46.584,109.066
			C267.049,281.673,238.111,303.243,210.094,312.692z"/>
	</g>
	<g>
		
			<ellipse transform="matrix(0.9186 -0.3952 0.3952 0.9186 -61.4892 106.2838)" fill="#FED873" cx="227.236" cy="202.394" rx="14.295" ry="38.119"/>
	</g>
</g>
</svg>
